<svg width="655" height="727" viewBox="0 0 655 727" fill="none" xmlns="http://www.w3.org/2000/svg">
<rect width="655" height="727" fill="#7000FF"/>
<rect width="655" height="727" fill="white"/>
<path d="M228.97 369.815C229.15 370.175 229.24 370.58 229.24 371.03C229.24 371.84 228.925 372.56 228.295 373.19C227.755 373.73 227.08 374 226.27 374H195.625C194.365 374 193.195 373.685 192.115 373.055C191.125 372.425 190.405 371.615 189.955 370.625L178.075 343.895H166.735V370.355C166.735 371.345 166.375 372.2 165.655 372.92C164.935 373.64 164.08 374 163.09 374H133.93C132.94 374 132.085 373.64 131.365 372.92C130.645 372.2 130.285 371.345 130.285 370.355V283.145C130.285 282.155 130.645 281.3 131.365 280.58C132.085 279.86 132.94 279.5 133.93 279.5H186.445C194.545 279.5 201.61 280.805 207.64 283.415C213.76 286.025 218.44 289.805 221.68 294.755C224.92 299.705 226.54 305.51 226.54 312.17C226.54 324.41 221.815 333.275 212.365 338.765L228.97 369.815ZM183.61 318.92C185.59 318.92 187.12 318.29 188.2 317.03C189.28 315.68 189.82 314.015 189.82 312.035C189.82 310.055 189.28 308.345 188.2 306.905C187.21 305.375 185.68 304.61 183.61 304.61H166.735V318.92H183.61ZM340.292 334.985C340.292 348.755 335.702 358.925 326.522 365.495C317.432 372.065 305.282 375.35 290.072 375.35C274.862 375.35 262.667 372.065 253.487 365.495C244.397 358.925 239.852 348.665 239.852 334.715V318.785C239.852 309.605 242.012 302 246.332 295.97C250.742 289.85 256.727 285.35 264.287 282.47C271.847 279.59 280.442 278.15 290.072 278.15C299.702 278.15 308.252 279.59 315.722 282.47C323.282 285.35 329.267 289.805 333.677 295.835C338.087 301.865 340.292 309.425 340.292 318.515V334.985ZM276.302 337.55C276.302 341.24 277.517 344.075 279.947 346.055C282.467 348.035 285.842 349.025 290.072 349.025C294.302 349.025 297.632 348.035 300.062 346.055C302.582 343.985 303.842 341.105 303.842 337.415V316.085C303.842 312.395 302.582 309.56 300.062 307.58C297.632 305.51 294.302 304.475 290.072 304.475C285.842 304.475 282.467 305.465 279.947 307.445C277.517 309.425 276.302 312.26 276.302 315.95V337.55ZM412.195 313.79C422.095 314.87 430.015 316.625 435.955 319.055C441.985 321.485 446.35 324.68 449.05 328.64C451.75 332.6 453.1 337.55 453.1 343.49C453.1 349.97 450.985 355.64 446.755 360.5C442.615 365.27 436.855 368.96 429.475 371.57C422.095 374.09 413.68 375.35 404.23 375.35C393.7 375.35 384.79 374.045 377.5 371.435C370.21 368.825 364.765 365.36 361.165 361.04C357.565 356.63 355.765 351.815 355.765 346.595C355.765 345.695 356.035 344.975 356.575 344.435C357.205 343.895 357.97 343.625 358.87 343.625H386.545C388.435 343.625 389.965 344.21 391.135 345.38C392.665 346.82 394.375 347.81 396.265 348.35C398.155 348.8 400.81 349.025 404.23 349.025C412.78 349.025 417.055 347.72 417.055 345.11C417.055 344.03 416.47 343.13 415.3 342.41C414.22 341.6 412.24 340.925 409.36 340.385C406.57 339.755 402.43 339.125 396.94 338.495C384.61 337.055 375.16 333.995 368.59 329.315C362.02 324.545 358.735 317.84 358.735 309.2C358.735 303.08 360.58 297.68 364.27 293C367.96 288.32 373.18 284.675 379.93 282.065C386.77 279.455 394.69 278.15 403.69 278.15C413.05 278.15 421.24 279.635 428.26 282.605C435.28 285.485 440.635 289.085 444.325 293.405C448.015 297.725 449.86 301.955 449.86 306.095C449.86 306.995 449.545 307.715 448.915 308.255C448.375 308.795 447.61 309.065 446.62 309.065H417.595C416.065 309.065 414.67 308.525 413.41 307.445C412.42 306.545 411.25 305.825 409.9 305.285C408.55 304.745 406.48 304.475 403.69 304.475C397.66 304.475 394.645 305.735 394.645 308.255C394.645 309.605 395.815 310.685 398.155 311.495C400.495 312.215 405.175 312.98 412.195 313.79Z" fill="#3147BD"/>
<path d="M515.84 320.48C517.28 321.28 518 322.427 518 323.92V338.56C518 339.147 517.787 339.653 517.36 340.08C516.933 340.507 516.427 340.72 515.84 340.72H464.16C463.573 340.72 463.067 340.507 462.64 340.08C462.213 339.653 462 339.147 462 338.56V324.08C462 323.493 462.213 322.987 462.64 322.56C463.067 322.133 463.573 321.92 464.16 321.92H488.96L477.44 316.08C477.067 315.92 476.64 315.547 476.16 314.96C475.68 314.373 475.44 313.627 475.44 312.72V307.28C475.44 306.373 475.68 305.627 476.16 305.04C476.64 304.453 477.067 304.08 477.44 303.92L488.96 298.08H464.16C463.573 298.08 463.067 297.867 462.64 297.44C462.213 297.013 462 296.507 462 295.92V281.44C462 280.853 462.213 280.347 462.64 279.92C463.067 279.493 463.573 279.28 464.16 279.28H515.84C516.427 279.28 516.933 279.493 517.36 279.92C517.787 280.347 518 280.853 518 281.44V296.08C518 297.573 517.28 298.72 515.84 299.52L496.64 310L515.84 320.48ZM477.6 403.889C477.6 404.475 477.387 404.982 476.96 405.409C476.533 405.835 476.027 406.049 475.44 406.049H464.16C463.573 406.049 463.067 405.835 462.64 405.409C462.213 404.982 462 404.475 462 403.889V353.329C462 352.742 462.213 352.235 462.64 351.809C463.067 351.382 463.573 351.169 464.16 351.169H515.84C516.427 351.169 516.933 351.382 517.36 351.809C517.787 352.235 518 352.742 518 353.329V403.089C518 403.675 517.787 404.182 517.36 404.609C516.933 405.035 516.427 405.249 515.84 405.249H504.56C503.973 405.249 503.467 405.035 503.04 404.609C502.613 404.182 502.4 403.675 502.4 403.089V371.969H497.36V398.689C497.36 399.275 497.147 399.782 496.72 400.209C496.293 400.635 495.787 400.849 495.2 400.849H484.8C484.213 400.849 483.707 400.635 483.28 400.209C482.853 399.782 482.64 399.275 482.64 398.689V371.969H477.6V403.889ZM518 473.538C518 474.124 517.787 474.631 517.36 475.058C516.933 475.484 516.427 475.698 515.84 475.698H502.96C502.373 475.698 501.867 475.484 501.44 475.058C501.013 474.631 500.8 474.124 500.8 473.538V456.338H464.16C463.573 456.338 463.067 456.124 462.64 455.698C462.213 455.271 462 454.764 462 454.177V437.698C462 437.111 462.213 436.604 462.64 436.178C463.067 435.751 463.573 435.538 464.16 435.538H500.8V418.338C500.8 417.751 501.013 417.244 501.44 416.818C501.867 416.391 502.373 416.178 502.96 416.178H515.84C516.427 416.178 516.933 416.391 517.36 416.818C517.787 417.244 518 417.751 518 418.338V473.538Z" fill="#F11E1E"/>
<path d="M153.328 476.688C149.232 476.688 145.051 475.835 140.784 474.128C136.517 472.421 132.763 470.032 129.52 466.96C126.363 463.888 124.187 460.389 122.992 456.464L127.984 454.544C129.861 459.749 133.232 463.888 138.096 466.96C142.96 470.032 148.037 471.568 153.328 471.568C157.509 471.568 161.307 470.672 164.72 468.88C168.219 467.003 170.949 464.443 172.912 461.2C174.96 457.957 175.984 454.331 175.984 450.32C175.984 446.224 174.576 442.768 171.76 439.952C168.944 437.051 164.336 433.723 157.936 429.968L151.28 426.256C146.587 423.781 142.917 421.691 140.272 419.984C137.712 418.192 135.621 416.101 134 413.712C132.379 411.237 131.568 408.251 131.568 404.752C131.568 400.741 132.592 397.2 134.64 394.128C136.688 390.971 139.461 388.581 142.96 386.96C146.544 385.253 150.469 384.4 154.736 384.4C160.112 384.4 164.635 385.68 168.304 388.24C171.973 390.8 173.851 394.171 173.936 398.352L168.304 398.096C168.048 395.28 166.469 393.147 163.568 391.696C160.752 390.245 157.68 389.52 154.352 389.52C151.28 389.52 148.421 390.203 145.776 391.568C143.131 392.848 140.997 394.64 139.376 396.944C137.755 399.248 136.944 401.723 136.944 404.368C136.944 408.464 138.48 411.835 141.552 414.48C144.709 417.04 149.019 419.685 154.48 422.416C156.699 423.44 158.405 424.336 159.6 425.104C167.28 429.712 172.869 433.893 176.368 437.648C179.867 441.317 181.616 445.584 181.616 450.448C181.616 455.568 180.293 460.133 177.648 464.144C175.088 468.155 171.632 471.269 167.28 473.488C163.013 475.621 158.363 476.688 153.328 476.688ZM219.581 391.568H188.861V386.32H255.933V391.568H225.341V473.872H219.581V391.568ZM336.017 474C334.908 474.683 333.457 475.024 331.665 475.024C328.166 475.024 325.308 473.531 323.089 470.544L307.601 449.168C304.785 445.328 302.054 442.597 299.409 440.976C296.849 439.269 293.777 438.203 290.193 437.776V433.04H300.177C306.236 433.04 311.142 431.163 314.897 427.408C318.652 423.568 320.529 418.533 320.529 412.304C320.529 406.245 318.737 401.296 315.153 397.456C311.569 393.531 307.046 391.568 301.585 391.568H279.313V474H273.937V386.448H302.097C306.62 386.448 310.673 387.557 314.257 389.776C317.926 391.995 320.785 395.067 322.833 398.992C324.881 402.832 325.905 407.227 325.905 412.176C325.905 419.088 324.07 424.72 320.401 429.072C316.732 433.339 311.825 435.685 305.681 436.112C302.78 436.283 300.518 436.368 298.897 436.368C301.116 436.709 302.78 437.179 303.889 437.776C304.998 438.373 306.15 439.44 307.345 440.976C310.076 444.56 313.489 449.125 317.585 454.672C321.681 460.133 324.924 464.528 327.313 467.856C328.422 469.392 329.83 470.16 331.537 470.16C332.561 470.16 333.329 470.032 333.841 469.776L336.017 474ZM386.096 475.792C377.819 475.792 370.309 473.872 363.568 470.032C356.912 466.192 351.664 460.944 347.824 454.288C343.984 447.547 342.064 439.995 342.064 431.632V429.2C342.064 420.752 343.941 413.115 347.696 406.288C351.536 399.376 356.741 393.957 363.312 390.032C369.968 386.107 377.392 384.144 385.584 384.144C393.776 384.144 401.2 386.107 407.856 390.032C414.512 393.957 419.76 399.376 423.6 406.288C427.44 413.115 429.36 420.752 429.36 429.2V431.632C429.36 440.08 427.483 447.675 423.728 454.416C420.059 461.072 414.939 466.32 408.368 470.16C401.797 473.915 394.373 475.792 386.096 475.792ZM385.712 470.928C392.88 470.928 399.365 469.221 405.168 465.808C411.056 462.395 415.664 457.701 418.992 451.728C422.32 445.669 423.984 438.971 423.984 431.632V429.2C423.984 421.776 422.277 415.035 418.864 408.976C415.451 402.832 410.8 398.011 404.912 394.512C399.024 391.013 392.539 389.264 385.456 389.264C378.373 389.264 371.931 391.013 366.128 394.512C360.325 398.011 355.76 402.832 352.432 408.976C349.104 415.035 347.44 421.776 347.44 429.2V431.632C347.44 438.971 349.104 445.669 352.432 451.728C355.76 457.701 360.325 462.395 366.128 465.808C372.016 469.221 378.544 470.928 385.712 470.928ZM450.815 386.32H456.575V473.872H450.815V386.32Z" fill="black"/>
</svg>
