<svg width="655" height="727" viewBox="0 0 655 727" fill="none" xmlns="http://www.w3.org/2000/svg">
<rect width="655" height="727" fill="#E5E5E5"/>
<rect width="655" height="727" fill="white"/>
<path d="M188.32 442.52L223.936 381.272H189.28V377.24H231.04V377.72L195.424 438.872H233.056V442.904H188.32V442.52ZM243.732 409.016C243.732 404.152 242.516 400.28 240.084 397.4L242.484 395C245.428 397.24 247.06 400.6 247.38 405.08C249.62 401.432 252.084 398.776 254.772 397.112C257.524 395.384 260.916 394.52 264.948 394.52C269.876 394.52 273.652 395.8 276.276 398.36C278.9 400.856 280.18 404.6 280.116 409.592L279.828 442.904H275.988L276.084 410.648C276.084 402.328 272.212 398.168 264.468 398.168C260.948 398.168 257.908 399.032 255.348 400.76C252.852 402.424 250.324 405.048 247.764 408.632V442.904H243.732V409.016Z" fill="black"/>
<path d="M147.2 215.064C158.635 215.064 167.467 217.539 173.696 222.488C180.011 227.352 183.168 234.136 183.168 242.84C183.168 251.544 180.011 258.413 173.696 263.448C167.381 268.483 158.507 271 147.072 271H94.336C93.3973 271 92.5867 270.659 91.904 269.976C91.2213 269.293 90.88 268.483 90.88 267.544V184.856C90.88 183.917 91.2213 183.107 91.904 182.424C92.5867 181.741 93.3973 181.4 94.336 181.4H169.6C170.539 181.4 171.349 181.741 172.032 182.424C172.715 183.107 173.056 183.917 173.056 184.856V202.776C173.056 203.715 172.715 204.525 172.032 205.208C171.349 205.891 170.539 206.232 169.6 206.232H124.16V215.064H147.2ZM142.72 248.984C144.683 248.984 146.133 248.301 147.072 246.936C148.096 245.571 148.608 244.077 148.608 242.456C148.608 240.835 148.053 239.427 146.944 238.232C145.92 237.037 144.512 236.44 142.72 236.44H124.16V248.984H142.72ZM289.102 181.4C289.955 181.4 290.638 181.699 291.15 182.296C291.747 182.808 292.046 183.405 292.046 184.088C292.046 184.856 291.79 185.837 291.278 187.032L263.63 244.888C260.217 252.056 257.059 257.432 254.158 261.016C251.257 264.6 247.673 267.16 243.406 268.696C239.225 270.232 233.465 271 226.126 271H211.406C210.467 271 209.657 270.659 208.974 269.976C208.291 269.293 207.95 268.483 207.95 267.544V247.064C207.95 246.125 208.291 245.315 208.974 244.632C209.657 243.949 210.467 243.608 211.406 243.608H221.774C223.993 243.608 225.913 243.267 227.534 242.584L196.302 185.368C196.046 184.941 195.918 184.515 195.918 184.088C195.918 183.32 196.217 182.68 196.814 182.168C197.497 181.656 198.35 181.4 199.374 181.4H227.406C228.43 181.4 229.241 181.656 229.838 182.168C230.435 182.68 230.99 183.448 231.502 184.472L244.046 211.736L256.718 184.472C257.657 182.424 259.107 181.4 261.07 181.4H289.102ZM364.956 181.4C372.977 181.4 379.975 182.765 385.948 185.496C391.921 188.227 396.487 191.939 399.644 196.632C402.801 201.325 404.38 206.573 404.38 212.376C404.38 221.933 401.393 229.443 395.42 234.904C389.447 240.28 379.292 242.968 364.956 242.968H348.06V267.544C348.06 268.483 347.719 269.293 347.036 269.976C346.353 270.659 345.543 271 344.604 271H317.084C316.145 271 315.335 270.659 314.652 269.976C313.969 269.293 313.628 268.483 313.628 267.544V184.856C313.628 183.917 313.969 183.107 314.652 182.424C315.335 181.741 316.145 181.4 317.084 181.4H364.956ZM364.444 219.288C366.492 219.288 368.113 218.691 369.308 217.496C370.503 216.216 371.1 214.552 371.1 212.504C371.1 210.371 370.503 208.621 369.308 207.256C368.113 205.891 366.492 205.208 364.444 205.208H348.188V219.288H364.444Z" fill="black"/>
<path d="M417.423 210.002C414.522 208.893 413.071 206.973 413.071 204.242V180.05C413.071 179.282 413.327 178.6 413.839 178.002C414.436 177.49 415.119 177.234 415.887 177.234L416.655 177.362L498.447 205.266C499.556 205.608 500.538 206.248 501.391 207.186C502.244 208.125 502.671 209.405 502.671 211.026V246.61C502.671 248.232 502.244 249.512 501.391 250.45C500.538 251.389 499.556 252.029 498.447 252.37L416.655 280.274L415.887 280.402C415.119 280.402 414.436 280.104 413.839 279.506C413.327 278.994 413.071 278.354 413.071 277.586V253.394C413.071 250.664 414.522 248.744 417.423 247.634L426.383 244.434V213.202L417.423 210.002ZM477.967 228.818L451.343 219.73V237.906L477.967 228.818ZM411.791 291.104C411.791 290.166 412.132 289.312 412.815 288.544C413.498 287.862 414.308 287.52 415.247 287.52H435.727C436.666 287.52 437.476 287.862 438.159 288.544C438.842 289.227 439.183 290.038 439.183 290.976C439.183 294.048 442.767 296.395 449.935 298.016C457.103 299.638 467.471 300.448 481.039 300.448H499.215C500.154 300.448 500.964 300.79 501.647 301.472C502.33 302.155 502.671 302.966 502.671 303.904V376.608C502.671 377.547 502.33 378.358 501.647 379.04C500.964 379.723 500.154 380.064 499.215 380.064H416.527C415.588 380.064 414.778 379.723 414.095 379.04C413.412 378.358 413.071 377.547 413.071 376.608V352.8C413.071 351.862 413.412 351.051 414.095 350.368C414.778 349.686 415.588 349.344 416.527 349.344H475.151V329.888H468.623C448.996 329.888 434.618 326.603 425.487 320.032C416.356 313.462 411.791 303.819 411.791 291.104ZM502.671 428.91C502.671 429.849 502.33 430.66 501.647 431.342C500.964 432.025 500.154 432.366 499.215 432.366H457.743L500.111 460.27C501.818 461.55 502.671 463.214 502.671 465.262V485.998C502.671 486.937 502.33 487.748 501.647 488.43C500.964 489.113 500.154 489.454 499.215 489.454H416.527C415.588 489.454 414.778 489.113 414.095 488.43C413.412 487.748 413.071 486.937 413.071 485.998V462.19C413.071 461.252 413.412 460.441 414.095 459.758C414.778 459.076 415.588 458.734 416.527 458.734H455.183L415.759 430.83C413.967 429.465 413.071 427.758 413.071 425.71V405.102C413.071 404.164 413.412 403.353 414.095 402.67C414.778 401.988 415.588 401.646 416.527 401.646H499.215C500.154 401.646 500.964 401.988 501.647 402.67C502.33 403.353 502.671 404.164 502.671 405.102V428.91Z" fill="black"/>
<path d="M118.16 296.416H118.928L147.632 363.904H143.12L133.616 341.536H103.472L94.064 363.904H89.648L118.16 296.416ZM122 313.504C121.232 311.712 120.464 309.728 119.696 307.552C118.992 305.376 118.576 304.064 118.448 303.616L117.872 305.536C117.04 308.736 116.176 311.392 115.28 313.504L105.008 337.696H132.08L122 313.504ZM159.314 294.208H163.346V363.904H159.314V294.208Z" fill="black"/>
<path d="M188.984 298.24H230.456V302.176H193.304V328.096H221.624V331.84H193.304V363.904H188.984V298.24ZM236.017 341.44C236.017 346.176 237.169 350.688 239.473 354.976C241.841 359.2 246.545 361.312 253.585 361.312C256.209 361.312 258.673 360.96 260.977 360.256C263.281 359.488 265.873 358.304 268.753 356.704L270.577 359.68C268.081 361.344 265.329 362.656 262.321 363.616C259.313 364.512 256.209 364.96 253.009 364.96C246.353 364.96 241.169 362.848 237.457 358.624C233.809 354.4 231.985 348.736 231.985 341.632C231.985 336.576 232.849 332.064 234.577 328.096C236.305 324.128 238.737 321.056 241.873 318.88C245.073 316.64 248.817 315.52 253.105 315.52C256.817 315.52 260.113 316.384 262.993 318.112C265.937 319.776 268.209 322.112 269.809 325.12C271.473 328.064 272.305 331.456 272.305 335.296C272.305 336.448 272.177 338.496 271.921 341.44H236.017ZM268.081 337.792C268.209 337.088 268.273 336.192 268.273 335.104C268.273 332.032 267.569 329.28 266.161 326.848C264.817 324.352 262.993 322.432 260.689 321.088C258.385 319.68 255.857 318.976 253.105 318.976C248.625 318.976 244.817 320.704 241.681 324.16C238.609 327.616 236.785 332.16 236.209 337.792H268.081Z" fill="black"/>
<path d="M361.984 364H357.472L341.728 342.112C341.152 341.216 340.16 340.576 338.752 340.192C337.408 339.744 335.936 339.52 334.336 339.52H328.096V364H324.064V294.304H328.096V335.872H332.512C334.688 335.872 336.416 335.808 337.696 335.68C339.04 335.552 340.256 335.2 341.344 334.624C343.52 333.472 345.44 331.712 347.104 329.344C348.832 326.976 350.176 324.544 351.136 322.048C352.096 319.552 352.736 317.536 353.056 316H356.896C356.704 318.304 355.84 321.056 354.304 324.256C352.768 327.392 350.944 330.24 348.832 332.8C346.784 335.36 344.864 337.024 343.072 337.792L361.984 364Z" fill="black"/>
<path d="M106.592 443.576C99.68 443.576 94.272 441.496 90.368 437.336C86.528 433.112 84.608 427.256 84.608 419.768C84.608 414.584 85.536 410.072 87.392 406.232C89.248 402.328 91.904 399.32 95.36 397.208C98.816 395.096 102.816 394.04 107.36 394.04C112.48 394.04 116.896 395.8 120.608 399.32L118.016 401.912C116.48 400.44 114.848 399.384 113.12 398.744C111.392 398.04 109.472 397.688 107.36 397.688C103.712 397.688 100.448 398.648 97.568 400.568C94.752 402.424 92.544 405.048 90.944 408.44C89.408 411.832 88.64 415.704 88.64 420.056C88.64 426.2 90.272 431.064 93.536 434.648C96.864 438.168 101.376 439.928 107.072 439.928C109.44 439.928 111.84 439.576 114.272 438.872C116.768 438.104 119.456 436.92 122.336 435.32L124.16 438.296C121.6 439.96 118.784 441.272 115.712 442.232C112.64 443.128 109.6 443.576 106.592 443.576ZM149.067 443.672C138.571 443.672 133.323 438.648 133.323 428.6V395H137.355L137.451 427.544C137.451 431.576 138.443 434.68 140.427 436.856C142.411 438.968 145.387 440.024 149.355 440.024C152.875 440.024 155.883 439.16 158.379 437.432C160.875 435.64 163.403 432.952 165.963 429.368V395H169.995V429.272C169.995 434.2 171.211 438.072 173.643 440.888L171.147 443.288C169.547 442.072 168.331 440.472 167.499 438.488C166.667 436.44 166.251 434.52 166.251 432.728C163.883 436.76 161.323 439.608 158.571 441.272C155.883 442.872 152.715 443.672 149.067 443.672Z" fill="black"/>
<path d="M321.475 383.16H322.155L347.57 442.915H343.575L335.16 423.11H308.47L300.14 442.915H296.23L321.475 383.16ZM324.875 398.29C324.195 396.703 323.515 394.947 322.835 393.02C322.212 391.093 321.843 389.932 321.73 389.535L321.22 391.235C320.483 394.068 319.718 396.42 318.925 398.29L309.83 419.71H333.8L324.875 398.29ZM375.933 465.185C369.7 465.185 364.912 463.967 361.568 461.53C358.225 459.15 356.553 455.127 356.553 449.46C356.553 448.553 356.695 446.825 356.978 444.275C357.092 443.652 357.205 442.773 357.318 441.64C356.128 440.79 355.165 439.713 354.428 438.41C353.748 437.05 353.408 435.605 353.408 434.075C353.408 432.488 353.805 430.902 354.598 429.315C355.392 427.672 356.78 426.425 358.763 425.575C359.5 425.235 360.265 425.037 361.058 424.98C361.852 424.867 363.155 424.782 364.968 424.725C362.362 422.175 361.058 418.775 361.058 414.525C361.058 411.408 361.738 408.717 363.098 406.45C364.515 404.127 366.385 402.37 368.708 401.18C371.088 399.99 373.752 399.395 376.698 399.395C378.852 399.395 380.835 399.792 382.648 400.585H396.418V403.73L387.408 403.22C389.108 404.693 390.355 406.337 391.148 408.15C391.942 409.963 392.338 412.032 392.338 414.355C392.338 419.002 390.893 422.628 388.003 425.235C385.17 427.842 381.402 429.145 376.698 429.145C373.525 429.145 370.777 428.522 368.453 427.275C367.207 427.162 366.017 427.105 364.883 427.105C363.75 427.105 362.73 427.218 361.823 427.445C360.577 427.785 359.443 428.55 358.423 429.74C357.46 430.873 356.978 432.29 356.978 433.99C356.978 435.917 357.687 437.333 359.103 438.24C360.52 439.147 362.702 439.6 365.648 439.6L371.598 439.43L378.908 439.26C384.688 439.26 389.222 440.28 392.508 442.32C395.852 444.303 397.523 447.392 397.523 451.585C397.523 456.288 395.455 459.717 391.318 461.87C387.238 464.08 382.11 465.185 375.933 465.185ZM376.868 425.915C380.608 425.915 383.527 424.81 385.623 422.6C387.72 420.39 388.768 417.67 388.768 414.44C388.768 410.87 387.607 408.008 385.283 405.855C383.017 403.702 380.127 402.625 376.613 402.625C372.987 402.625 370.068 403.73 367.858 405.94C365.705 408.15 364.628 410.983 364.628 414.44C364.628 418.01 365.79 420.815 368.113 422.855C370.437 424.895 373.355 425.915 376.868 425.915ZM375.763 461.955C381.09 461.955 385.453 461.133 388.853 459.49C392.253 457.847 393.953 455.268 393.953 451.755C393.953 445.635 388.683 442.575 378.143 442.575C376.783 442.575 375.027 442.632 372.873 442.745L367.688 442.83C366.045 442.83 364.543 442.802 363.183 442.745C361.823 442.688 360.803 442.575 360.123 442.405C360.18 442.688 360.208 443.255 360.208 444.105L360.123 448.44C360.123 453.653 361.427 457.195 364.033 459.065C366.697 460.992 370.607 461.955 375.763 461.955Z" fill="black"/>
<line x1="179.5" y1="298" x2="179.5" y2="443" stroke="black"/>
<line x1="290" y1="443.043" x2="290" y2="297.957" stroke="black"/>
<line x1="80" y1="375.5" x2="172" y2="375.5" stroke="black"/>
<line x1="189" y1="375.5" x2="281" y2="375.5" stroke="black"/>
<line x1="301" y1="375.5" x2="393" y2="375.5" stroke="black"/>
</svg>
